<svg width="644" height="581" viewBox="0 0 644 581" fill="none" xmlns="http://www.w3.org/2000/svg">
<path d="M322 564.024C476.617 564.024 601.96 496.95 601.96 414.21C601.96 331.47 476.617 264.396 322 264.396C167.382 264.396 42.0403 331.47 42.0403 414.21C42.0403 496.95 167.382 564.024 322 564.024Z" fill="#F0F0F0"/>
<path d="M426.288 439.18C476.632 439.18 517.444 417.922 517.444 391.7C517.444 365.477 476.632 344.219 426.288 344.219C375.944 344.219 335.133 365.477 335.133 391.7C335.133 417.922 375.944 439.18 426.288 439.18Z" fill="#E0E0E0"/>
<path d="M197.157 485.392C243.432 485.392 280.946 465.852 280.946 441.748C280.946 417.644 243.432 398.104 197.157 398.104C150.881 398.104 113.367 417.644 113.367 441.748C113.367 465.852 150.881 485.392 197.157 485.392Z" fill="#E0E0E0"/>
<path d="M211.255 476.766L354.961 551.617C355.731 552.018 356.979 552.018 357.75 551.617L433.439 512.193C434.209 511.792 434.209 511.142 433.439 510.741L289.734 435.888C288.964 435.487 287.716 435.487 286.946 435.888L211.255 475.314C210.485 475.714 210.485 476.365 211.255 476.766Z" fill="#E0E0E0"/>
<path d="M547.74 362.727L535.47 356.336C535.47 356.336 532.464 332.629 534.465 314.27C537.275 288.471 555.742 257.428 577.775 264.718C599.806 272.009 567.673 298.283 560.521 320.166C553.367 342.047 547.74 362.727 547.74 362.727Z" fill="#54D59B"/>
<path opacity="0.15" d="M547.74 362.727L535.47 356.336C535.47 356.336 532.464 332.629 534.465 314.27C537.275 288.471 555.742 257.428 577.775 264.718C599.806 272.009 567.673 298.283 560.521 320.166C553.367 342.047 547.74 362.727 547.74 362.727Z" fill="black"/>
<path d="M541.287 360.036C541.295 360.036 541.304 360.036 541.313 360.036C541.722 360.023 542.044 359.714 542.03 359.344C539.875 302.019 571.506 273.183 571.825 272.899C572.118 272.639 572.122 272.215 571.833 271.952C571.542 271.688 571.072 271.685 570.782 271.945C570.458 272.234 538.368 301.484 540.544 359.391C540.558 359.752 540.888 360.036 541.287 360.036Z" fill="white"/>
<path d="M555.455 366.712L546.724 362.164C546.724 362.164 545.239 345.896 554.08 326.134C561.775 308.929 580.873 294.656 590.477 297.655C600.082 300.655 599.843 306.799 595.16 313.245C590.477 319.69 561.988 335.054 555.455 366.712Z" fill="#54D59B"/>
<path d="M550.849 364.984H550.853C551.263 364.982 551.595 364.681 551.592 364.31C551.42 328.065 589.143 303.568 589.524 303.325C589.858 303.111 589.939 302.694 589.7 302.391C589.466 302.09 589.004 302.015 588.665 302.232C588.279 302.478 549.93 327.382 550.106 364.317C550.109 364.686 550.441 364.984 550.849 364.984Z" fill="white"/>
<path d="M102.567 352.483L112.914 347.091C112.914 347.091 119.072 324.009 116.618 303.239C113.168 274.038 91.8628 263.05 83.76 265.568C75.6585 268.086 73.3118 276.584 86.7173 293.976C94.6256 304.237 104.341 325.61 102.567 352.483Z" fill="#54D59B"/>
<g opacity="0.15">
<path d="M102.567 352.483L112.914 347.091C112.914 347.091 119.072 324.009 116.618 303.239C113.168 274.038 91.8628 263.05 83.76 265.568C75.6585 268.086 73.3118 276.584 86.7173 293.976C94.6256 304.237 104.341 325.61 102.567 352.483Z" fill="black"/>
</g>
<path d="M106.854 341.143C106.82 341.142 106.788 341.138 106.755 341.133C106.366 341.065 106.109 340.727 106.184 340.376C111.855 313.442 101.426 283.177 88.5115 270.583C88.2423 270.322 88.2603 269.91 88.5514 269.669C88.8425 269.429 89.2972 269.442 89.5651 269.705C102.716 282.529 113.348 313.288 107.593 340.618C107.526 340.939 107.206 341.16 106.854 341.143Z" fill="white"/>
<path d="M75.4652 366.604C73.8308 367.355 69.485 363.998 68.273 363.182C66.1994 361.785 64.5623 359.866 63.5229 357.732C62.3135 355.249 62.1203 352.638 62.6908 349.978C62.9871 348.599 63.4933 347.264 63.9982 345.934C64.494 344.629 64.9899 343.324 65.4858 342.018C65.9752 340.731 66.4711 339.398 66.3552 338.041C66.1221 335.307 63.5551 333.281 61.2161 331.529C58.6298 329.591 55.9649 327.067 56.1633 323.797C56.3165 321.274 57.8956 318.996 59.74 317.093C61.5845 315.191 63.7393 313.535 65.4227 311.516C66.6347 310.062 67.6136 308.334 67.5312 306.516C67.4796 305.386 67.0224 304.303 66.4814 303.284C65.3197 301.096 63.7406 299.069 62.9845 296.74C62.2297 294.411 62.5144 291.571 64.5855 290.025C66.2857 288.755 68.7097 288.677 70.9018 288.908C72.9304 289.122 74.8715 290.041 76.6012 291.015C82.1963 294.164 85.1368 300.464 91.1209 302.964C93.429 303.928 95.9998 304.232 98.4225 304.931C100.845 305.628 103.286 306.874 104.309 308.975C106.326 313.117 101.886 317.907 103.222 322.267C104.404 326.126 108.411 327.764 110.516 331.288C111.436 332.83 111.57 334.57 111.312 336.306C110.872 339.244 110.272 341.386 108.52 344.596C107.073 347.247 102.994 352.26 102.994 352.26C102.994 352.26 75.7151 366.489 75.4652 366.604Z" fill="#54D59B"/>
<path d="M91.3013 359.158C91.2923 359.158 91.282 359.157 91.282 359.157C90.8775 359.123 90.5877 358.807 90.6225 358.451C93.2423 332.834 81.4185 303.881 72.1294 295.205C71.8551 294.948 71.8615 294.538 72.1474 294.289C72.4334 294.042 72.8868 294.05 73.1624 294.305C82.6382 303.157 94.7081 332.592 92.0535 358.571C92.0161 358.917 91.6838 359.175 91.3013 359.158Z" fill="white"/>
<path d="M88.4804 327.57C88.4108 327.567 88.34 327.555 88.2704 327.532C79.2712 324.566 67.9007 323.598 67.7887 323.589C67.3932 323.555 67.1034 323.241 67.1395 322.885C67.1756 322.529 67.4911 322.262 67.92 322.299C68.036 322.31 79.5855 323.292 88.7625 326.316C89.1347 326.438 89.3266 326.81 89.1901 327.146C89.0793 327.419 88.7869 327.584 88.4804 327.57Z" fill="white"/>
<path d="M346.536 24.89L253.102 73.5697C252.306 73.9845 251.661 74.9931 251.661 75.8216V110.873C251.661 111.703 252.31 112.706 253.11 113.113L258.273 115.724C259.075 116.131 260.368 116.126 261.164 115.711L354.598 67.0311C355.394 66.6162 356.039 65.6076 356.039 64.7791V29.7286C356.039 28.8989 355.39 27.8961 354.59 27.4894L349.427 24.8784C348.627 24.4693 347.332 24.4752 346.536 24.89Z" fill="#54D59B"/>
<path d="M259.724 114.962V79.9092C259.724 79.0795 260.369 78.0709 261.165 77.6573L354.599 28.9776C355.395 28.5628 356.04 28.8986 356.04 29.7282V64.78C356.04 65.6096 355.395 66.6183 354.599 67.0319L261.165 115.712C260.369 116.126 259.724 115.791 259.724 114.962Z" fill="#54D59B"/>
<path opacity="0.2" d="M261.165 115.712C260.397 116.114 258.996 116.128 258.272 115.727L253.111 113.11C252.313 112.708 251.66 111.705 251.66 110.876V75.8216C251.66 75.3894 251.84 74.9153 252.119 74.4946L260.149 78.6302C259.882 79.0322 259.723 79.4947 259.723 79.9095V114.959C259.724 115.719 260.316 116.157 261.165 115.712Z" fill="black"/>
<path opacity="0.4" d="M356.021 29.4926C355.908 28.8383 355.315 28.6036 354.597 28.9755L261.168 77.6575C260.768 77.8678 260.409 78.2222 260.149 78.63L252.112 74.4945C252.372 74.1041 252.717 73.7682 253.104 73.5695L346.539 24.8875C347.331 24.4727 348.623 24.4669 349.428 24.8759L354.589 27.4869C355.315 27.8588 355.921 28.7175 356.021 29.4926Z" fill="white"/>
<path d="M247.711 103.15C246.805 102.663 240.028 99.2216 239.809 99.1078C239.143 98.7417 238.903 97.8528 239.523 97.252L251.786 85.7715L259.723 89.842L247.466 101.328C246.867 101.905 247.105 102.754 247.711 103.15Z" fill="#54D59B"/>
<path opacity="0.4" d="M247.711 103.15C246.805 102.663 240.028 99.2216 239.809 99.1078C239.143 98.7417 238.903 97.8528 239.523 97.252L251.786 85.7715L259.723 89.842L247.466 101.328C246.867 101.905 247.105 102.754 247.711 103.15Z" fill="white"/>
<path d="M259.724 89.8433L247.463 101.326C246.633 102.13 247.242 103.233 248.288 103.32L259.724 103.276V89.8433Z" fill="#54D59B"/>
<path d="M275.566 79.0992C275.704 79.026 275.825 79.033 275.926 79.1225C276.027 79.2108 276.078 79.3514 276.078 79.5443V81.4139C276.078 81.6068 276.03 81.8125 275.936 82.0286C275.841 82.2448 275.749 82.4376 275.66 82.6061L272.891 88.1082C273.459 87.9176 273.974 87.8421 274.437 87.8816C274.898 87.9235 275.293 88.0815 275.623 88.358C275.951 88.6346 276.204 89.0343 276.382 89.5572C276.559 90.0801 276.648 90.7192 276.648 91.4734C276.648 92.3867 276.519 93.2663 276.258 94.1123C275.999 94.9594 275.64 95.7495 275.176 96.4816C274.715 97.2148 274.171 97.8748 273.544 98.4651C272.918 99.0554 272.238 99.5411 271.504 99.9223C270.618 100.384 269.85 100.639 269.2 100.689C268.548 100.739 268.004 100.649 267.566 100.42C267.131 100.191 266.799 99.8444 266.572 99.3819C266.344 98.9218 266.211 98.4198 266.173 97.8771C266.159 97.6726 266.206 97.4751 266.315 97.288C266.421 97.1009 266.545 96.9708 266.684 96.8987L268.182 96.1179C268.31 96.0516 268.414 96.054 268.496 96.1248C268.579 96.1981 268.663 96.3154 268.751 96.4804C268.827 96.6512 268.929 96.7965 269.054 96.915C269.182 97.0347 269.349 97.1137 269.558 97.1544C269.766 97.1939 270.028 97.1776 270.345 97.0986C270.662 97.0242 271.047 96.865 271.501 96.6292C272.274 96.2259 272.896 95.6868 273.37 95.0082C273.845 94.3319 274.082 93.5975 274.082 92.8062C274.082 92.0149 273.845 91.571 273.37 91.4757C272.896 91.3804 272.273 91.5338 271.501 91.937L269.927 92.7562C269.788 92.8294 269.668 92.8224 269.567 92.733C269.465 92.6458 269.415 92.5064 269.415 92.3112V90.4415C269.415 90.2486 269.462 90.0441 269.556 89.8268C269.652 89.6107 269.743 89.4178 269.832 89.2481L272.489 83.9924L267.253 86.7196C267.114 86.7928 266.995 86.7847 266.893 86.6952C266.792 86.6081 266.741 86.4686 266.741 86.2757V84.4038C266.741 84.2109 266.792 84.018 266.893 83.8251C266.995 83.631 267.114 83.4986 267.253 83.4254L275.566 79.0992Z" fill="#FAFAFA"/>
<path d="M280.327 77.3295C280.327 77.1366 280.378 76.9425 280.479 76.7496C280.58 76.5567 280.7 76.4231 280.839 76.3499L287.973 72.635C288.111 72.5618 288.232 72.5699 288.333 72.6582C288.435 72.7465 288.485 72.8871 288.485 73.08V74.9508C288.485 75.1437 288.435 75.3366 288.333 75.5307C288.232 75.7236 288.111 75.856 287.973 75.9292L282.64 78.7064L282.433 82.1889C282.774 81.8183 283.111 81.5278 283.447 81.3174C283.782 81.1071 284.058 80.9468 284.273 80.8352C284.981 80.4657 285.64 80.2542 286.246 80.2019C286.853 80.1496 287.378 80.2681 287.822 80.554C288.265 80.8422 288.611 81.2988 288.866 81.9228C289.119 82.5468 289.245 83.3509 289.245 84.3328C289.245 85.4588 289.115 86.4872 288.856 87.4214C288.597 88.3568 288.241 89.2004 287.793 89.9523C287.344 90.7041 286.816 91.3571 286.21 91.9114C285.602 92.4657 284.957 92.9188 284.274 93.2756C283.401 93.7299 282.651 93.9786 282.026 94.0251C281.401 94.0704 280.88 93.9577 280.47 93.6892C280.06 93.4208 279.75 93.0292 279.541 92.5121C279.331 91.9985 279.214 91.4048 279.189 90.732C279.176 90.5274 279.224 90.3322 279.331 90.144C279.438 89.9569 279.563 89.8268 279.702 89.7536L281.237 88.9541C281.363 88.8879 281.477 88.8844 281.58 88.9471C281.68 89.0099 281.751 89.1249 281.789 89.2992C281.864 89.6652 281.983 89.9313 282.149 90.0987C282.313 90.2683 282.502 90.3717 282.717 90.4101C282.932 90.4473 283.173 90.424 283.438 90.3369C283.705 90.2509 283.982 90.1324 284.273 89.9801C284.994 89.606 285.575 89.0296 286.018 88.2546C286.46 87.4807 286.682 86.6173 286.682 85.668C286.682 84.8778 286.46 84.3351 286.018 84.0377C285.574 83.7414 284.993 83.7727 284.273 84.1295C283.893 84.327 283.593 84.5246 283.371 84.7186C283.151 84.9127 282.97 85.0986 282.832 85.2764C282.693 85.4542 282.566 85.6122 282.452 85.7516C282.338 85.8876 282.193 86.0038 282.015 86.0967L280.27 87.0054C280.131 87.0786 280.011 87.0705 279.909 86.981C279.809 86.895 279.759 86.7544 279.759 86.5604L280.327 77.3295Z" fill="#FAFAFA"/>
<path d="M294.33 83.7682C294.469 83.695 294.589 83.7019 294.689 83.7914C294.791 83.8797 294.841 84.0203 294.841 84.2132V86.7963C294.841 86.9892 294.791 87.1821 294.689 87.375C294.589 87.5679 294.469 87.7015 294.33 87.7748L292.565 88.6939C292.426 88.7671 292.306 88.7578 292.205 88.6695C292.104 88.5823 292.054 88.4417 292.054 88.2488V85.6657C292.054 85.4728 292.104 85.2799 292.205 85.0859C292.306 84.8918 292.426 84.7605 292.565 84.6873L294.33 83.7682Z" fill="#FAFAFA"/>
<path d="M300.23 80.6935C300.369 80.6203 300.489 80.6284 300.591 80.7179C300.691 80.805 300.742 80.9456 300.742 81.1385V83.7216C300.742 83.9145 300.691 84.1074 300.591 84.3015C300.489 84.4944 300.369 84.6268 300.23 84.7L298.466 85.6192C298.327 85.6924 298.207 85.6843 298.105 85.5948C298.005 85.5076 297.954 85.367 297.954 85.1741V82.591C297.954 82.3981 298.005 82.2052 298.105 82.0112C298.207 81.8183 298.327 81.6858 298.466 81.6126L300.23 80.6935Z" fill="#FAFAFA"/>
<path d="M306.13 77.6198C306.269 77.5466 306.389 77.5559 306.491 77.6442C306.591 77.7314 306.642 77.872 306.642 78.0649V80.648C306.642 80.8409 306.591 81.0338 306.491 81.2278C306.389 81.4219 306.269 81.5532 306.13 81.6264L304.366 82.5455C304.227 82.6188 304.107 82.6118 304.006 82.5223C303.905 82.434 303.854 82.2934 303.854 82.1005V79.5174C303.854 79.3245 303.905 79.1316 304.006 78.9387C304.107 78.7458 304.227 78.6122 304.366 78.539L306.13 77.6198Z" fill="#FAFAFA"/>
<path d="M318.786 56.5865C318.925 56.5133 319.045 56.5215 319.147 56.6109C319.247 56.6981 319.298 56.8387 319.298 57.0316V58.9024C319.298 59.0953 319.251 59.2998 319.156 59.5159C319.061 59.7332 318.968 59.9261 318.88 60.0934L316.111 65.5955C316.679 65.4049 317.196 65.3294 317.658 65.3701C318.118 65.4107 318.513 65.5699 318.843 65.8465C319.171 66.1219 319.424 66.5228 319.603 67.0445C319.779 67.5686 319.868 68.2065 319.868 68.9618C319.868 69.874 319.738 70.7548 319.479 71.6007C319.22 72.4478 318.86 73.2368 318.397 73.97C317.936 74.7033 317.391 75.3633 316.764 75.9536C316.138 76.5427 315.458 77.0284 314.724 77.4107C313.838 77.8709 313.071 78.1277 312.42 78.1765C311.768 78.2264 311.224 78.137 310.788 77.9069C310.351 77.678 310.019 77.3317 309.792 76.8704C309.564 76.4102 309.431 75.9083 309.394 75.3644C309.381 75.1599 309.429 74.9636 309.536 74.7753C309.643 74.5894 309.766 74.4592 309.905 74.386L311.405 73.6052C311.531 73.5389 311.635 73.5424 311.718 73.6133C311.799 73.6865 311.885 73.8039 311.974 73.9677C312.049 74.1397 312.15 74.2849 312.275 74.4035C312.403 74.522 312.57 74.601 312.78 74.6417C312.989 74.6823 313.25 74.6649 313.567 74.5871C313.883 74.5115 314.268 74.3535 314.723 74.1165C315.495 73.7132 316.119 73.1752 316.591 72.4966C317.067 71.8192 317.304 71.0848 317.304 70.2946C317.304 69.5022 317.067 69.0594 316.591 68.9641C316.119 68.8689 315.494 69.0211 314.723 69.4243L313.149 70.2447C313.01 70.3179 312.89 70.3109 312.788 70.2203C312.688 70.1331 312.636 69.9937 312.636 69.7996V67.9288C312.636 67.7359 312.684 67.5314 312.779 67.3153C312.873 67.098 312.966 66.9051 313.055 66.7366L315.711 61.4797L310.473 64.2069C310.334 64.2801 310.215 64.2732 310.113 64.1837C310.012 64.0954 309.961 63.9559 309.961 63.763V61.8922C309.961 61.6993 310.012 61.5064 310.113 61.3124C310.215 61.1183 310.334 60.987 310.473 60.9138L318.786 56.5865Z" fill="#FAFAFA"/>
<path d="M322.505 66.8518C322.518 65.8257 322.65 64.895 322.903 64.0618C323.155 63.2275 323.448 62.4001 323.776 61.5786L327.383 52.637C327.433 52.5057 327.498 52.357 327.581 52.1908C327.662 52.0235 327.792 51.8957 327.97 51.8039L329.676 50.9138C329.816 50.8406 329.937 50.8487 330.037 50.937C330.139 51.0253 330.189 51.1659 330.189 51.3588C330.189 51.4471 330.18 51.5215 330.162 51.5831C330.141 51.647 330.121 51.7016 330.095 51.7504L327.742 57.6673C328.489 57.2966 329.174 57.1061 329.801 57.0956C330.426 57.0863 330.964 57.2455 331.414 57.5732C331.863 57.902 332.211 58.3971 332.459 59.0594C332.705 59.7194 332.828 60.527 332.828 61.4752C332.828 62.442 332.702 63.3902 332.45 64.3209C332.196 65.2529 331.84 66.122 331.386 66.9296C330.931 67.7384 330.387 68.4658 329.754 69.1107C329.121 69.7579 328.426 70.2773 327.667 70.6724C326.907 71.0675 326.213 71.272 325.579 71.2848C324.947 71.2987 324.403 71.1384 323.947 70.8037C323.491 70.4702 323.139 69.9706 322.886 69.3013C322.631 68.6354 322.505 67.8186 322.505 66.8518ZM330.246 62.8196C330.246 61.9237 330.022 61.2881 329.573 60.9151C329.123 60.5444 328.489 60.5723 327.667 60.9999C326.844 61.4276 326.209 62.062 325.761 62.9021C325.311 63.7434 325.087 64.6103 325.087 65.5062C325.087 66.4021 325.313 67.0447 325.761 67.4351C326.21 67.8244 326.845 67.8046 327.667 67.377C328.49 66.9494 329.124 66.3056 329.573 65.4492C330.022 64.5928 330.246 63.7144 330.246 62.8196Z" fill="#FAFAFA"/>
<path d="M337.74 61.1568C337.878 61.0836 337.999 61.0906 338.1 61.1801C338.202 61.2684 338.252 61.409 338.252 61.6019V64.185C338.252 64.3779 338.202 64.5708 338.1 64.7637C337.999 64.9566 337.878 65.0902 337.74 65.1634L335.976 66.0826C335.837 66.1558 335.717 66.1465 335.615 66.0582C335.514 65.971 335.465 65.8304 335.465 65.6375V63.0544C335.465 62.8615 335.514 62.6686 335.615 62.4746C335.717 62.2805 335.837 62.1492 335.976 62.076L337.74 61.1568Z" fill="#FAFAFA"/>
<path d="M343.641 58.0821C343.78 58.0089 343.9 58.0171 344.002 58.1065C344.102 58.1937 344.152 58.3343 344.152 58.5272V61.1103C344.152 61.3032 344.102 61.4961 344.002 61.6901C343.9 61.883 343.78 62.0155 343.641 62.0887L341.876 63.0078C341.737 63.0811 341.617 63.0729 341.516 62.9834C341.415 62.8963 341.365 62.7557 341.365 62.5628V59.9797C341.365 59.7868 341.415 59.5939 341.516 59.3998C341.617 59.2069 341.737 59.0745 341.876 59.0013L343.641 58.0821Z" fill="#FAFAFA"/>
<path d="M349.542 55.0085C349.682 54.9353 349.801 54.9446 349.903 55.0329C350.004 55.1201 350.054 55.2607 350.054 55.4535V58.0367C350.054 58.2296 350.004 58.4225 349.903 58.6165C349.801 58.8106 349.682 58.9419 349.542 59.0151L347.778 59.9342C347.639 60.0074 347.519 60.0004 347.419 59.911C347.317 59.8227 347.267 59.6821 347.267 59.4892V56.906C347.267 56.7132 347.317 56.5203 347.419 56.3274C347.519 56.1345 347.639 56.0008 347.778 55.9276L349.542 55.0085Z" fill="#FAFAFA"/>
<path d="M426.823 433.629C427.879 433.629 428.734 432.858 428.734 431.905V321.054C428.734 320.101 427.879 319.329 426.823 319.329C425.767 319.329 424.911 320.101 424.911 321.054V431.905C424.911 432.858 425.767 433.629 426.823 433.629Z" fill="#455A64"/>
<path d="M350.801 393.281C351.562 393.281 352.281 392.869 352.577 392.19L390.255 306.154C390.643 305.269 390.161 304.266 389.18 303.919C388.202 303.564 387.089 304.001 386.702 304.889L349.024 390.924C348.636 391.81 349.116 392.812 350.099 393.16C350.33 393.242 350.568 393.281 350.801 393.281Z" fill="#455A64"/>
<path d="M355.327 382.946C355.835 382.946 356.341 382.764 356.716 382.406L426.824 315.475L496.806 382.124C497.533 382.817 498.742 382.846 499.507 382.19C500.274 381.534 500.306 380.443 499.579 379.753L428.209 311.782C427.848 311.438 427.347 311.243 426.821 311.243H426.82C426.296 311.243 425.794 311.438 425.433 311.783L353.937 380.039C353.211 380.731 353.247 381.823 354.013 382.476C354.384 382.789 354.856 382.946 355.327 382.946Z" fill="#455A64"/>
<path d="M502.842 393.281C503.075 393.281 503.314 393.243 503.544 393.159C504.525 392.811 505.007 391.809 504.619 390.924L466.941 304.888C466.554 304 465.442 303.564 464.463 303.918C463.482 304.266 463 305.268 463.388 306.153L501.066 392.189C501.362 392.868 502.081 393.281 502.842 393.281Z" fill="#455A64"/>
<path d="M353.399 380.289L348.418 392.148C348.389 392.25 348.373 392.351 348.373 392.452C348.365 392.519 348.365 392.592 348.373 392.667C348.418 392.91 348.758 393.219 349.124 393.415C349.96 393.853 351.319 393.853 352.156 393.415C352.463 393.253 352.657 393.058 352.746 392.856C352.746 392.849 352.746 392.842 352.754 392.836L352.791 392.675L357.41 381.557L353.399 380.289Z" fill="#54D59B"/>
<path d="M500.245 380.289L505.226 392.148C505.256 392.25 505.271 392.351 505.271 392.452C505.279 392.519 505.279 392.592 505.271 392.667C505.226 392.91 504.886 393.219 504.52 393.415C503.684 393.853 502.325 393.853 501.488 393.415C501.182 393.253 500.988 393.058 500.898 392.856C500.898 392.849 500.898 392.842 500.891 392.836L500.853 392.675L496.234 381.557L500.245 380.289Z" fill="#54D59B"/>
<path d="M424.619 423.322V433.133C424.619 433.427 424.834 433.721 425.264 433.944C426.125 434.393 427.519 434.393 428.38 433.944C428.81 433.72 429.025 433.426 429.025 433.133V423.322C427.557 422.658 426.087 422.658 424.619 423.322Z" fill="#54D59B"/>
<path d="M341.374 304.987C341.381 301.9 344.377 298.611 350.716 294.9C362.43 288.045 396.529 270.871 412.919 262.678C412.952 262.568 413.057 262.557 413.057 262.557C425.669 255.652 429.504 226.177 438.234 201.186C441.21 192.67 444.853 187.848 449.173 185.585C450.199 185.048 453.978 183.169 454.823 182.713C463.386 178.082 474.629 183.645 488.633 190.56C501.533 196.929 511.609 205.082 513.637 226.718C514.87 239.891 513.696 265.066 510.731 284.144C510.732 284.141 510.739 284.127 510.739 284.127C506.444 316.001 501.174 316.056 493.522 321.389C480.352 330.568 450.692 343.472 438.194 347.907C415.521 355.953 396.994 343.548 383.185 337.395C369.377 331.242 352.402 321.644 346.591 317.836C343.134 315.571 341.346 313.282 341.382 310.869C341.396 309.909 341.372 305.986 341.374 304.987Z" fill="#54D59B"/>
<path opacity="0.3" d="M341.374 304.987C341.381 301.9 344.377 298.611 350.716 294.9C362.43 288.045 396.529 270.871 412.919 262.678C412.952 262.568 413.057 262.557 413.057 262.557C425.669 255.652 429.504 226.177 438.234 201.186C441.21 192.67 444.853 187.848 449.173 185.585C450.199 185.048 453.978 183.169 454.823 182.713C463.386 178.082 474.629 183.645 488.633 190.56C501.533 196.929 511.609 205.082 513.637 226.718C514.87 239.891 513.696 265.066 510.731 284.144C510.732 284.141 510.739 284.127 510.739 284.127C506.444 316.001 501.174 316.056 493.522 321.389C480.352 330.568 450.692 343.472 438.194 347.907C415.521 355.953 396.994 343.548 383.185 337.395C369.377 331.242 352.402 321.644 346.591 317.836C343.134 315.571 341.346 313.282 341.382 310.869C341.396 309.909 341.372 305.986 341.374 304.987Z" fill="black"/>
<path d="M383.184 331.463C369.375 325.31 352.401 315.712 346.589 311.904C338.732 306.757 339.455 301.49 350.716 294.9C366.36 285.745 421.922 258.19 421.922 258.19C421.922 258.19 502.543 301.115 499.074 309.041C495.606 316.967 453.914 336.397 438.194 341.975C415.52 350.022 396.993 337.615 383.184 331.463Z" fill="#54D59B"/>
<path d="M449.674 185.324C458.161 181.306 469.189 186.768 482.831 193.511C491.57 197.834 499.016 202.954 503.54 212.537L509.3 209.533C504.776 199.988 497.343 194.868 488.632 190.559C474.625 183.638 463.386 178.086 454.816 182.713C454.072 183.106 451.094 184.601 449.674 185.324Z" fill="#54D59B"/>
<path opacity="0.5" d="M449.674 185.324C458.161 181.306 469.189 186.768 482.831 193.511C491.57 197.834 499.016 202.954 503.54 212.537L509.3 209.533C504.776 199.988 497.343 194.868 488.632 190.559C474.625 183.638 463.386 178.086 454.816 182.713C454.072 183.106 451.094 184.601 449.674 185.324Z" fill="white"/>
<path d="M482.835 193.516C461.877 183.167 447.096 175.814 438.233 201.186C429.503 226.178 425.669 255.652 413.055 262.557C413.055 262.557 421.284 264.999 450.608 277.99C462.651 283.325 470.56 288.7 481.837 295.1C498.425 304.516 497.164 311.513 497.164 311.513C505.405 305.348 509.866 251.31 507.839 229.675C505.812 208.04 495.736 199.886 482.835 193.516Z" fill="#54D59B"/>
<g opacity="0.1">
<path d="M482.835 193.516C461.877 183.167 447.096 175.814 438.233 201.186C429.503 226.178 425.669 255.652 413.055 262.557C413.055 262.557 421.284 264.999 450.608 277.99C462.651 283.325 470.56 288.7 481.837 295.1C498.425 304.516 497.164 311.513 497.164 311.513C505.405 305.348 509.866 251.31 507.839 229.675C505.812 208.04 495.736 199.886 482.835 193.516Z" fill="black"/>
</g>
<path d="M203.546 123.787C215.02 124.271 222.427 126.096 228.432 132.478C234.295 138.71 264.65 177.61 264.65 177.61C264.65 177.61 259.34 191.04 247.721 189.897L224.912 165.004L203.546 123.787Z" fill="#B16668"/>
<path d="M204.454 123.568C204.454 123.568 216.674 123.745 222.247 127.266C227.821 130.787 228.774 131.529 236.975 141.799C245.176 152.069 252.565 161.286 252.565 161.286C252.565 161.286 246.756 171.058 232.712 174.911L208.555 148.642L204.454 123.568Z" fill="#37474F"/>
<path d="M145.483 432.576H164.525L164.143 406.26L145.483 408.893V432.576Z" fill="#B16668"/>
<path d="M209.948 414.934L228.003 415.495L227.292 387.478L207.331 386.419L209.948 414.934Z" fill="#B16668"/>
<path d="M184.537 460.231C185.087 460.697 184.921 463.886 184.314 464.746C183.664 465.667 177.354 468.54 170.601 468.976C164.149 469.394 158.387 468.608 154.599 466.439C150.811 464.269 148.976 461.875 148.62 458.559C148.263 455.243 148.673 452.044 146.92 449.491C145.302 447.134 142.723 444.478 142.162 443.2C140.941 440.42 142.118 436.446 142.118 436.446L184.537 460.231Z" fill="#263238"/>
<path d="M166.877 431.281C166.922 432.57 167.175 433.744 167.622 434.973C168.557 437.544 169.979 439.965 171.573 442.267C172.395 443.452 173.263 444.616 174.264 445.691C176.215 447.786 178.639 449.506 180.706 451.516C182.772 453.525 184.528 455.963 184.69 458.663C184.964 463.228 176.896 464.779 172.668 465.459C168.152 466.184 163.332 465.967 158.925 464.836C154.022 463.579 150.482 460.152 149.669 455.738C149.435 454.47 149.521 453.174 149.355 451.899C148.976 448.989 147.306 446.33 145.419 443.911C144.324 442.507 143.134 441.137 142.4 439.564C141.08 436.737 142.138 433.558 142.982 430.743C143.711 428.312 144.535 425.561 145.485 425.79C145.496 427.049 145.48 427.181 146.483 428.036C147.75 429.116 147.806 430.742 149.145 431.697C148.518 430.217 148.477 429.588 148.205 428.449C148.124 428.109 148.226 427.419 148.49 427.158C148.845 426.809 149.45 426.59 150.044 426.409C152.035 425.801 154.099 425.379 156.189 425.147C158.099 424.934 162.869 424.725 164.762 425.108C165.344 425.225 165.911 425.476 166.27 425.894C166.648 426.335 166.719 426.725 166.809 427.455C166.898 428.184 166.835 430.068 166.877 431.281Z" fill="#455A64"/>
<path d="M172.255 443.225C170.37 441.952 163.571 441.934 161.263 442.158C158.371 442.438 156.03 443.352 154.7 444.235C154.112 444.627 153.286 444.559 152.768 444.098C152.145 443.543 152.202 442.629 152.911 442.158C154.32 441.222 156.871 439.907 160.297 439.688C165.978 439.327 170.222 440.205 170.222 440.205C170.222 440.205 172.812 441.711 172.255 443.225Z" fill="#F5F5F5"/>
<path d="M176.589 447.903C174.219 446.639 166.998 446.821 164.69 447.044C161.799 447.324 159.637 448.35 158.308 449.234C157.718 449.626 156.894 449.558 156.375 449.096C155.751 448.54 155.808 447.627 156.518 447.155C157.927 446.22 163.212 444.708 166.638 444.491C172.319 444.13 173.8 445.176 173.8 445.176C173.8 445.176 176.196 446.014 176.589 447.903Z" fill="#F5F5F5"/>
<path d="M158.034 434.782C161.96 434.417 166.201 434.812 167.753 435.323C168.755 435.828 169.413 437.255 168.769 437.617C167.504 436.984 162.651 436.722 159.861 436.833C157.99 436.909 155.63 437.592 153.718 438.357C153.231 438.551 152.656 438.824 152.153 439.076C151.473 439.415 150.608 439.175 150.283 438.552C150.006 438.024 150.212 437.394 150.775 437.088C152.148 436.337 154.86 435.078 158.034 434.782Z" fill="#F5F5F5"/>
<path d="M263.448 433.894C263.978 434.893 263.824 436.768 263.195 437.957C262.567 439.146 255.682 442.648 246.396 442.083C237.111 441.519 230.734 438.143 227.193 436.028C223.652 433.913 219.966 433.518 215.368 433.281C210.77 433.044 204.731 430.976 203.723 429.035C202.714 427.095 203.875 423.754 203.875 423.754L263.448 433.894Z" fill="#263238"/>
<path d="M225.973 407.746C226.215 407.7 226.46 407.653 226.707 407.609C227.112 407.536 227.532 407.464 227.932 407.55C228.388 407.647 228.762 407.937 229.079 408.247C230.077 409.226 230.68 410.472 231.451 411.606C233.397 414.472 237.484 416.843 241.946 419.007C244.979 420.478 247.952 421.619 251.084 422.89C254.278 424.187 258.52 424.979 261.02 426.498C264.664 428.714 265.135 434.282 260.982 436.48C257.4 438.376 247.977 440.432 238.093 437.906C232.71 436.53 226.733 431.339 219.666 430.841C215.172 430.524 206.674 429.385 203.781 426.306C202.712 424.94 204.139 420.612 205.312 416.875C206.591 412.796 207.809 406.432 209.308 406.791C209.37 407.593 209.507 407.769 210.091 408.314C210.645 408.831 211.392 409.16 211.995 409.626C213.106 410.483 213.789 411.692 214.48 412.852C214.781 413.354 215.136 413.89 215.757 414.1C216.514 414.357 217.081 413.926 217.744 413.65C218.578 413.305 219.55 413.242 220.43 413.477C220.343 412.669 220.185 411.869 219.956 411.083C219.882 410.83 219.801 410.56 219.89 410.312C219.98 410.06 220.225 409.881 220.466 409.728C222.197 408.635 223.987 408.133 225.973 407.746Z" fill="#455A64"/>
<path d="M237.749 416.804C237.749 416.804 237.104 415.248 234.432 414.8C232.386 414.456 228.775 415.816 226.53 417.485C225.611 418.168 225.73 419.465 226.772 419.985C227.391 420.294 228.151 420.212 228.686 419.793C230.158 418.637 233.459 416.537 237.749 416.804Z" fill="#F5F5F5"/>
<path d="M244.088 420.007C244.088 420.007 242.766 418.143 240.155 418.179C240.155 418.179 234.815 418.317 231.51 421.097C230.668 421.805 230.726 423.013 231.736 423.512C232.336 423.81 233.069 423.731 233.58 423.319C235.069 422.12 238.053 419.599 244.088 420.007Z" fill="#F5F5F5"/>
<path d="M251.084 422.891C251.084 422.891 249.612 421.205 247 421.24C247 421.24 242.024 421.408 238.72 424.187C237.878 424.896 237.936 426.103 238.946 426.603C239.546 426.9 240.279 426.821 240.79 426.41C242.279 425.212 245.051 422.485 251.084 422.891Z" fill="#F5F5F5"/>
<path d="M148.371 222.473C147.203 254.452 147.121 319.87 147.121 319.87C146.747 323.849 146.366 330.92 146.036 345.25C145.558 366.03 145.482 419.417 145.482 419.417C145.482 419.417 155.447 421.966 165.525 418.177C165.525 418.177 179.572 346.063 182.446 325.493C184.956 307.542 189.214 258.775 189.214 258.775L197.913 317.379C197.913 317.379 196.348 332.654 197.318 344.956C198.067 354.471 208.794 403.391 208.794 403.391C208.794 403.391 216.788 406.736 227.763 403.391C227.763 403.391 227.927 326.103 228.113 317.373C228.324 307.42 227.116 205.341 227.116 205.341L148.371 222.473Z" fill="#54D59B"/>
<path opacity="0.3" d="M148.371 222.473C147.203 254.452 147.121 319.87 147.121 319.87C146.747 323.849 146.366 330.92 146.036 345.25C145.558 366.03 145.482 419.417 145.482 419.417C145.482 419.417 155.447 421.966 165.525 418.177C165.525 418.177 179.572 346.063 182.446 325.493C184.956 307.542 189.214 258.775 189.214 258.775L197.913 317.379C197.913 317.379 196.348 332.654 197.318 344.956C198.067 354.471 208.794 403.391 208.794 403.391C208.794 403.391 216.788 406.736 227.763 403.391C227.763 403.391 227.927 326.103 228.113 317.373C228.324 307.42 227.116 205.341 227.116 205.341L148.371 222.473Z" fill="black"/>
<path opacity="0.2" d="M189.215 258.775C189.215 258.775 202.041 255.516 211.562 247.216C211.562 247.216 207.249 254.499 194.427 261.278L197.17 312.365L189.215 258.775Z" fill="black"/>
<path d="M179.852 122.431C172.668 123.06 162.616 123.134 155.485 123.786C150.544 125.62 141.04 133.095 141.747 138.432C144.39 158.355 149.001 191.262 149.001 191.262L147.588 225.621C157.468 234.515 204.116 237.98 227.935 223.747C227.935 223.747 227.164 161.565 225.529 151.08C222.589 132.231 220.015 125.236 209.235 123.567C198.457 121.9 179.852 122.431 179.852 122.431Z" fill="#455A64"/>
<path d="M221.105 82.9724C225.528 72.6235 219.815 60.9987 208.344 57.0078C196.873 53.0168 183.988 58.171 179.564 68.5199C175.141 78.8688 180.854 90.4936 192.325 94.4845C203.796 98.4755 216.681 93.3213 221.105 82.9724Z" fill="#263238"/>
<path d="M161.709 89.7104C161.709 89.7104 165.168 105.029 166.591 107.552C168.013 110.076 170.996 110.814 170.996 110.814L170.848 100.056L161.709 89.7104Z" fill="#263238"/>
<path d="M166.449 67.8416C166.449 67.8416 162.57 67.2107 159.515 69.9797C156.519 72.6953 158.094 81.2825 161.71 89.7093L168.497 90.4669L166.449 67.8416Z" fill="#263238"/>
<path d="M170.536 90.489C169.167 91.213 167.247 88.8355 165.581 87.2366C163.916 85.6377 158.452 83.4264 155.665 88.6066C152.825 93.8856 157.961 100.931 162.267 102.188C169.689 104.354 170.848 100.056 170.848 100.056L171.156 125.02C180.306 135.795 205.991 135.095 195.401 123.83L195.451 116.46C195.451 116.46 202.185 117.436 205.48 117.004C210.96 116.283 214.442 112.415 216.153 107.084C218.903 98.5196 219.983 91.5964 217.884 74.6951C215.584 56.1705 191.729 55.7894 178.774 63.0031C165.82 70.2156 170.536 90.489 170.536 90.489Z" fill="#B16668"/>
<path d="M170.516 92.5574C169.83 92.5632 167.262 88.6426 165.58 87.2366C163.249 85.2891 166.449 67.8428 166.449 67.8428C166.449 67.8428 163.59 62.8822 168.16 58.4236C171.411 55.2526 175.939 51.3843 190.532 53.0575C200.936 54.2509 212.242 57.2709 221.438 53.2841C222.759 58.4353 221.596 64.1604 215.863 68.1786C215.863 68.1786 212.53 70.0808 203.803 70.9686C195.075 71.8575 181.509 70.6084 179.654 70.3644C177.129 70.032 176.568 72.2387 175.146 78.266C173.899 83.5589 172.819 92.5353 170.516 92.5574Z" fill="#263238"/>
<path d="M166.449 69.201L158.25 65.1467C159.44 63.0261 162.24 62.215 164.505 63.3352C166.769 64.4542 167.64 67.0803 166.449 69.201Z" fill="#263238"/>
<path d="M195.451 116.458C195.451 116.458 183.255 114.141 179.005 112.059C176.16 110.666 173.828 108.271 173.152 106.742C173.152 106.742 173.921 110.019 176.446 112.984C179.534 116.611 195.423 119.39 195.423 119.39L195.451 116.458Z" fill="#9A4A4D"/>
<path d="M197.591 89.7362C197.578 91.0039 196.471 92.0195 195.12 92.0056C193.768 91.9916 192.682 90.9528 192.695 89.6851C192.707 88.4173 193.813 87.4017 195.165 87.4157C196.516 87.4296 197.603 88.4684 197.591 89.7362Z" fill="#263238"/>
<path d="M196.111 79.4548L191.002 82.2633C190.166 80.9375 190.631 79.2328 192.042 78.4578C193.453 77.6827 195.275 78.1289 196.111 79.4548Z" fill="#263238"/>
<path d="M217.147 84.7569L212.526 81.2639C213.555 80.067 215.424 79.8788 216.701 80.8433C217.977 81.8077 218.177 83.56 217.147 84.7569Z" fill="#263238"/>
<path d="M215.165 89.735C215.154 90.9504 214.094 91.9242 212.797 91.9102C211.501 91.8963 210.46 90.9016 210.472 89.6862C210.483 88.4707 211.543 87.4969 212.84 87.5109C214.136 87.5237 215.177 88.5195 215.165 89.735Z" fill="#263238"/>
<path d="M203.943 86.873L203.029 100.151L210.969 98.6092L203.943 86.873Z" fill="#9A4A4D"/>
<path d="M198.459 105.985C198.459 107.154 197.408 108.102 196.112 108.102C194.816 108.102 193.765 107.154 193.765 105.985C193.765 104.816 194.816 103.868 196.112 103.868C197.408 103.868 198.459 104.816 198.459 105.985Z" fill="#9A4A4D"/>
<path d="M126.731 98.9957C132.2 93.6853 135.981 89.6392 140.934 85.1133C143.747 82.5429 145.57 80.6918 148.298 78.0378C150.174 76.2123 151.336 74.632 153.231 74.1916C155.362 73.6978 157.499 72.5183 158.965 71.3958C160.012 70.5929 160.905 69.6424 161.836 68.7302C164.964 65.666 168.584 63.012 172.546 60.8716C176.708 58.622 181.227 57.037 185.476 54.921C188.012 53.6579 190.833 51.428 188.235 48.8426C187.43 48.042 186.341 47.5249 185.203 47.1902C178.321 45.1649 171.912 46.8288 164.802 47.7306C161.882 48.1012 158.998 48.6904 156.187 49.4921C154.763 49.8977 153.338 50.3509 152.108 51.1131C150.191 52.3007 148.911 54.1297 147.556 55.8343C143.916 60.4115 137.754 64.6992 132.838 68.0621C127.07 72.0059 121.426 76.2484 115.525 79.9784C109.531 83.7653 103.65 87.7173 98.1443 92.0667C93.5899 95.6654 94.0562 98.0463 94.5095 99.1804C97.1074 105.675 100.572 108.246 104.57 112.5C112.915 121.376 149.161 154.783 149.161 154.783L154.798 145.404C160.686 135.607 158.242 123.437 148.924 116.124C141.335 110.168 133.131 103.725 126.731 98.9957Z" fill="#B16668"/>
<path d="M159.7 123.133C149.327 115.883 131.179 101.896 131.179 101.896C131.179 101.896 130.467 118.343 117.29 126.378C117.29 126.378 141.386 149.634 147.705 155.205C153.587 153.997 158.613 149.772 160.306 141.561C163.166 127.681 159.7 123.133 159.7 123.133Z" fill="#37474F"/>
<path d="M126.731 98.9956C126.731 98.9956 121.545 104.035 113.559 105.437C113.559 105.437 119.526 107.041 129.131 100.785L126.731 98.9956Z" fill="#9A4A4D"/>
<path d="M281.133 448.08C278.621 446.767 276.367 446.512 274.757 447.348C272.954 448.29 271.911 450.637 271.911 453.774V476.491C271.911 483.231 269.27 488.355 264.479 490.958L292.918 476.166V467.404C292.918 460.258 287.521 451.404 281.133 448.08Z" fill="#F0F0F0"/>
<path d="M325.595 493.038C323.766 492.085 322.143 491.876 321.022 492.457C319.734 493.119 319 494.851 319 497.198V512.106C319 516.162 317.326 519.357 314.402 520.88L334.778 510.282V508.098C334.778 502.532 330.579 495.629 325.595 493.038Z" fill="#F0F0F0"/>
<path opacity="0.15" d="M281.133 448.08C278.621 446.767 276.367 446.512 274.757 447.348C272.954 448.29 271.911 450.637 271.911 453.774V476.491C271.911 483.231 269.27 488.355 264.479 490.958L292.918 476.166V467.404C292.918 460.258 287.521 451.404 281.133 448.08Z" fill="black"/>
<path opacity="0.15" d="M325.595 493.038C323.766 492.085 322.143 491.876 321.022 492.457C319.734 493.119 319 494.851 319 497.198V512.106C319 516.162 317.326 519.357 314.402 520.88L334.778 510.282V508.098C334.778 502.532 330.579 495.629 325.595 493.038Z" fill="black"/>
<path d="M426.303 489.668L409.186 498.581L406.958 499.743L360.86 523.727V534.626C360.86 538.321 359.379 541.18 356.674 542.667L424.526 507.366C427.334 505.901 428.879 503.008 428.879 499.232V488.332L426.303 489.668Z" fill="#F0F0F0"/>
<path d="M426.303 488.332L408.529 497.582L406.301 498.744L358.284 523.727H360.86L406.958 499.743L409.186 498.581L426.303 489.668L428.879 488.332H426.303Z" fill="#FAFAFA"/>
<path d="M206.558 221.246V245.23C206.558 250.04 203.041 252.109 198.701 249.855C194.373 247.6 190.857 242.104 190.857 237.595V229.415L206.558 221.246Z" fill="#F0F0F0"/>
<path d="M213.114 200.086C211.955 199.482 210.937 199.331 210.319 199.645C209.585 200.028 209.134 201.202 209.134 202.701V219.91V245.23C209.134 248.391 207.82 250.924 205.54 252.214L219.67 244.858V214.425V213.077V210.881C219.67 206.884 216.669 201.934 213.114 200.086Z" fill="#E6E6E6"/>
<path d="M206.558 219.91V221.246L190.857 229.415H188.281L206.558 219.91Z" fill="#FAFAFA"/>
<path d="M405.373 487.612V472.703C405.373 466.289 400.685 458.643 394.902 455.633C392.21 454.227 389.75 454.076 387.895 454.983L387.496 455.192L363.629 467.613L361.221 468.857L320.018 490.307C321.859 489.482 324.255 489.657 326.883 491.028C332.666 494.037 337.354 501.683 337.354 508.098V508.934V523.006C337.354 529.432 342.042 537.066 347.813 540.087C353.596 543.097 358.284 540.657 358.284 534.626C358.284 528.607 358.284 523.726 358.284 523.726L406.301 498.743L408.529 497.581C406.584 494.456 405.373 490.877 405.373 487.612Z" fill="#FAFAFA"/>
<path d="M363.513 465.812V432.01C363.513 423.98 357.666 414.429 350.44 410.664C347.079 408.921 344.013 408.735 341.695 409.839L341.102 410.153L295.571 433.834L293.382 434.985L273.817 445.164C276.123 444.129 279.124 444.35 282.421 446.058C289.647 449.823 295.494 459.375 295.494 467.404V474.818V501.207C295.494 507.633 300.182 515.267 305.966 518.277C311.736 521.286 316.424 518.532 316.424 512.106V497.198C316.424 493.793 317.751 491.411 319.85 490.389L320.018 490.307L361.221 468.857L363.629 467.613C363.552 467.009 363.513 466.405 363.513 465.812Z" fill="#F5F5F5"/>
<path d="M290.265 416.044V175.487C290.265 170.676 286.749 164.936 282.421 162.681C280.399 161.636 278.557 161.519 277.166 162.193L276.857 162.356L209.237 197.541C210.615 196.914 212.418 197.053 214.402 198.076C218.729 200.33 222.246 206.07 222.246 210.881V211.741V213.077V243.522V451.438C222.246 464.279 232.24 479.884 244.554 486.298L247.027 487.588C259.353 494.002 269.335 489.029 269.335 476.491C269.335 463.942 269.335 453.774 269.335 453.774C269.335 449.684 270.855 446.779 273.315 445.419L273.817 445.164L293.382 434.984L295.571 433.834C292.261 428.059 290.265 421.773 290.265 416.044Z" fill="#FAFAFA"/>
<path d="M360.86 523.727V534.626C360.86 538.321 359.379 541.18 356.674 542.667L356.365 542.83C355.18 543.411 353.879 543.701 352.488 543.701C350.608 543.701 348.585 543.167 346.525 542.098C339.943 538.658 334.778 530.28 334.778 523.006V508.098C334.778 502.532 330.579 495.629 325.595 493.038C323.766 492.085 322.143 491.876 321.022 492.457C319.734 493.119 319 494.851 319 497.198V512.107C319 516.162 317.326 519.357 314.402 520.88C311.633 522.32 308.168 522.111 304.678 520.287C298.083 516.859 292.918 508.481 292.918 501.207V467.404C292.918 460.258 287.521 451.404 281.133 448.08C278.621 446.767 276.367 446.512 274.757 447.348C272.954 448.289 271.911 450.637 271.911 453.774V476.491C271.911 483.231 269.27 488.355 264.479 490.958L264.08 491.167L264.054 491.179C259.031 493.7 252.526 493.143 245.739 489.599L243.266 488.309C230.257 481.534 219.67 464.987 219.67 451.438V210.881C219.67 206.884 216.669 201.934 213.114 200.086C211.954 199.482 210.937 199.331 210.319 199.645C209.585 200.028 209.134 201.202 209.134 202.701V245.23C209.134 248.391 207.82 250.924 205.54 252.214L205.154 252.411C202.9 253.492 200.156 253.294 197.413 251.865C192.3 249.192 188.281 242.929 188.281 237.584V229.415H190.857V237.596C190.857 242.104 194.373 247.6 198.701 249.855C203.041 252.109 206.558 250.041 206.558 245.23V202.701C206.558 200.226 207.485 198.483 208.979 197.669L209.237 197.542C210.615 196.914 212.418 197.053 214.402 198.076C218.729 200.33 222.246 206.071 222.246 210.881V451.438C222.246 464.279 232.24 479.884 244.554 486.298L247.027 487.588C259.353 494.003 269.335 489.029 269.335 476.491C269.335 463.942 269.335 453.774 269.335 453.774C269.335 449.684 270.855 446.779 273.315 445.419L273.817 445.164C276.123 444.13 279.124 444.35 282.421 446.058C289.647 449.823 295.494 459.375 295.494 467.404V501.207C295.494 507.633 300.182 515.267 305.966 518.277C311.736 521.286 316.424 518.532 316.424 512.107V497.198C316.424 493.793 317.751 491.411 319.85 490.389L320.018 490.307C321.859 489.482 324.255 489.657 326.883 491.028C332.666 494.037 337.354 501.683 337.354 508.098V523.006C337.354 529.432 342.042 537.066 347.813 540.087C353.596 543.097 358.284 540.657 358.284 534.626C358.284 528.607 358.284 523.727 358.284 523.727H360.86Z" fill="#455A64"/>
<path opacity="0.07" d="M292.918 476.166V467.404C292.918 460.258 287.521 451.404 281.133 448.08C278.621 446.767 276.367 446.512 274.757 447.348C272.954 448.29 271.911 450.637 271.911 453.774V455.601C271.911 449.374 283.857 449.584 283.857 466.986C283.857 472.022 283.857 476.728 283.857 480.879L292.918 476.166Z" fill="black"/>
<path opacity="0.07" d="M334.778 510.282V508.098C334.778 502.532 330.579 495.629 325.595 493.038C323.766 492.085 322.143 491.876 321.022 492.457C319.734 493.119 319 494.851 319 497.198V504.655C319 497.198 327.978 501.268 327.978 506.812C327.978 508.662 327.978 511.226 327.978 513.818L334.778 510.282Z" fill="black"/>
<path opacity="0.08" d="M219.67 244.858V214.425V213.077V210.881C219.67 206.884 216.669 201.934 213.114 200.086C211.955 199.482 210.937 199.331 210.319 199.645C209.585 200.028 209.134 201.202 209.134 202.701V210.337C209.134 205.158 215.39 207.012 215.39 216.635C215.39 222.766 215.39 237.32 215.39 247.086L219.67 244.858Z" fill="black"/>
<path d="M399.196 473.321C398.207 473.836 397.404 475.09 397.404 476.12C397.404 477.151 398.207 477.568 399.196 477.053C400.185 476.539 400.987 475.285 400.987 474.254C400.987 473.223 400.185 472.806 399.196 473.321Z" fill="#54D59B"/>
<path d="M399.196 491.886C398.207 492.402 397.404 493.655 397.404 494.686C397.404 495.716 398.207 496.133 399.196 495.619C400.185 495.104 400.987 493.85 400.987 492.819C400.987 491.79 400.185 491.372 399.196 491.886Z" fill="#54D59B"/>
<path d="M387.726 459.636C388.601 460.299 390.18 460.552 391.254 460.201C392.328 459.849 392.489 459.026 391.615 458.364C390.74 457.7 389.161 457.448 388.087 457.799C387.013 458.15 386.852 458.974 387.726 459.636Z" fill="#54D59B"/>
<g opacity="0.3">
<path d="M332.12 488.884C331.898 488.884 331.681 488.779 331.562 488.593C331.383 488.316 331.489 487.96 331.798 487.8L382.277 461.507C382.584 461.344 382.979 461.44 383.157 461.72C383.336 461.998 383.23 462.353 382.921 462.513L332.442 488.806C332.34 488.859 332.229 488.884 332.12 488.884Z" fill="#455A64"/>
<path d="M339.007 495.335C338.785 495.335 338.567 495.231 338.449 495.045C338.27 494.767 338.376 494.411 338.685 494.251L389.163 467.957C389.471 467.796 389.865 467.89 390.042 468.17C390.221 468.448 390.116 468.803 389.807 468.964L339.329 495.257C339.227 495.311 339.116 495.335 339.007 495.335Z" fill="#455A64"/>
<path d="M342.484 504.23C342.263 504.23 342.045 504.126 341.927 503.94C341.747 503.662 341.853 503.307 342.162 503.146L392.642 476.854C392.949 476.69 393.343 476.787 393.521 477.066C393.7 477.344 393.595 477.7 393.286 477.86L342.806 504.152C342.704 504.206 342.594 504.23 342.484 504.23Z" fill="#455A64"/>
<path d="M342.582 513.411C342.361 513.411 342.143 513.307 342.024 513.121C341.845 512.843 341.951 512.488 342.26 512.327L392.739 486.035C393.046 485.872 393.441 485.968 393.619 486.247C393.798 486.525 393.693 486.881 393.383 487.041L342.904 513.334C342.802 513.386 342.692 513.411 342.582 513.411Z" fill="#455A64"/>
<path d="M342.699 522.59C342.478 522.59 342.26 522.485 342.142 522.299C341.963 522.022 342.068 521.666 342.377 521.506L392.855 495.212C393.162 495.049 393.557 495.146 393.735 495.425C393.914 495.702 393.808 496.058 393.499 496.218L343.021 522.512C342.92 522.565 342.809 522.59 342.699 522.59Z" fill="#455A64"/>
<path d="M358.284 523.936V525.272L346.499 531.407C346.396 531.465 346.28 531.489 346.177 531.489C345.958 531.489 345.739 531.384 345.623 531.198C345.443 530.919 345.546 530.559 345.855 530.408L358.284 523.936Z" fill="#455A64"/>
<path d="M358.284 533.964V534.626C358.284 534.859 358.271 535.091 358.258 535.312L353.364 537.857C353.261 537.915 353.158 537.938 353.042 537.938C352.823 537.938 352.604 537.833 352.488 537.647C352.308 537.369 352.411 537.02 352.72 536.857L358.284 533.964Z" fill="#455A64"/>
</g>
<path d="M357.291 428.018C356.302 428.534 355.499 429.787 355.499 430.817C355.499 431.848 356.302 432.266 357.291 431.75C358.28 431.235 359.082 429.982 359.082 428.951C359.082 427.922 358.28 427.503 357.291 428.018Z" fill="#54D59B"/>
<path d="M357.291 448.284C356.302 448.8 355.499 450.053 355.499 451.084C355.499 452.114 356.302 452.533 357.291 452.017C358.28 451.501 359.082 450.248 359.082 449.218C359.082 448.187 358.28 447.77 357.291 448.284Z" fill="#54D59B"/>
<path d="M359.083 469.484C359.083 469.658 359.057 469.833 359.005 470.007L355.566 471.796C355.528 471.669 355.502 471.518 355.502 471.355C355.502 470.321 356.301 469.066 357.292 468.555C358.284 468.032 359.083 468.45 359.083 469.484Z" fill="#54D59B"/>
<path d="M343.401 413.943C344.276 414.606 345.855 414.859 346.929 414.508C348.003 414.157 348.164 413.333 347.29 412.669C346.415 412.006 344.836 411.754 343.762 412.106C342.688 412.457 342.527 413.279 343.401 413.943Z" fill="#54D59B"/>
<g opacity="0.4">
<path d="M287.65 443.783C287.427 443.783 287.211 443.678 287.091 443.492C286.913 443.215 287.019 442.859 287.328 442.698L338.525 416.065C338.833 415.905 339.227 416 339.406 416.278C339.584 416.556 339.478 416.912 339.169 417.073L287.972 443.706C287.87 443.757 287.76 443.783 287.65 443.783Z" fill="#455A64"/>
<path d="M295.238 450.431C295.015 450.431 294.799 450.326 294.679 450.14C294.501 449.863 294.607 449.507 294.916 449.345L346.113 422.714C346.422 422.553 346.813 422.648 346.993 422.927C347.171 423.205 347.066 423.561 346.757 423.722L295.56 450.354C295.458 450.405 295.347 450.431 295.238 450.431Z" fill="#455A64"/>
<path d="M299.945 459.771C299.722 459.771 299.506 459.666 299.386 459.48C299.209 459.203 299.314 458.847 299.623 458.685L350.82 432.052C351.129 431.893 351.522 431.987 351.701 432.266C351.879 432.544 351.773 432.9 351.464 433.061L300.267 459.694C300.166 459.745 300.055 459.771 299.945 459.771Z" fill="#455A64"/>
<path d="M300.722 469.565C300.499 469.565 300.283 469.461 300.163 469.275C299.985 468.997 300.091 468.641 300.4 468.48L351.597 441.847C351.905 441.687 352.299 441.782 352.478 442.061C352.656 442.338 352.55 442.694 352.241 442.855L301.044 469.489C300.942 469.541 300.832 469.565 300.722 469.565Z" fill="#455A64"/>
<path d="M300.722 479.495C300.499 479.495 300.283 479.39 300.163 479.204C299.985 478.927 300.091 478.571 300.4 478.41L351.597 451.777C351.905 451.616 352.299 451.712 352.478 451.99C352.656 452.268 352.55 452.624 352.241 452.785L301.044 479.418C300.942 479.47 300.832 479.495 300.722 479.495Z" fill="#455A64"/>
<path d="M300.722 489.424C300.499 489.424 300.283 489.32 300.163 489.134C299.985 488.856 300.091 488.5 300.4 488.339L351.597 461.706C351.905 461.545 352.299 461.641 352.478 461.92C352.656 462.197 352.55 462.553 352.241 462.714L301.044 489.347C300.942 489.4 300.832 489.424 300.722 489.424Z" fill="#455A64"/>
<path d="M300.729 499.334C300.506 499.334 300.289 499.229 300.17 499.043C299.992 498.766 300.097 498.41 300.407 498.248L351.603 471.615C351.911 471.456 352.305 471.55 352.484 471.829C352.662 472.107 352.556 472.462 352.247 472.624L301.051 499.257C300.949 499.309 300.838 499.334 300.729 499.334Z" fill="#455A64"/>
<path d="M316.424 501.172V502.52L304.227 508.864C304.124 508.911 304.021 508.946 303.905 508.946C303.686 508.946 303.467 508.841 303.351 508.655C303.171 508.376 303.274 508.016 303.583 507.853L316.424 501.172Z" fill="#455A64"/>
<path d="M316.424 512.025V512.106C316.424 512.559 316.398 512.989 316.347 513.408L311.517 515.918C311.414 515.976 311.298 515.999 311.195 515.999C310.976 515.999 310.757 515.894 310.641 515.708C310.461 515.43 310.564 515.081 310.873 514.918L316.424 512.025Z" fill="#455A64"/>
</g>
<path d="M285.649 183.928C284.659 184.443 283.857 185.696 283.857 186.727C283.857 187.757 284.659 188.175 285.649 187.66C286.638 187.144 287.44 185.891 287.44 184.861C287.44 183.83 286.638 183.412 285.649 183.928Z" fill="#54D59B"/>
<path d="M277.855 167.372C278.729 168.036 280.308 168.288 281.383 167.937C282.457 167.585 282.618 166.762 281.743 166.1C280.869 165.436 279.29 165.184 278.215 165.535C277.143 165.886 276.98 166.709 277.855 167.372Z" fill="#54D59B"/>
<path d="M285.649 212.761C284.659 213.277 283.857 214.53 283.857 215.56C283.857 216.591 284.659 217.009 285.649 216.493C286.638 215.977 287.44 214.725 287.44 213.694C287.44 212.663 286.638 212.245 285.649 212.761Z" fill="#54D59B"/>
<path d="M285.649 231.984C284.659 232.499 283.857 233.752 283.857 234.783C283.857 235.814 284.659 236.231 285.649 235.716C286.638 235.201 287.44 233.948 287.44 232.917C287.44 231.885 286.638 231.468 285.649 231.984Z" fill="#54D59B"/>
<path d="M285.649 251.206C284.659 251.722 283.857 252.974 283.857 254.005C283.857 255.036 284.659 255.453 285.649 254.938C286.638 254.422 287.44 253.17 287.44 252.139C287.44 251.108 286.638 250.691 285.649 251.206Z" fill="#54D59B"/>
<path d="M285.649 270.429C284.659 270.945 283.857 272.198 283.857 273.228C283.857 274.259 284.659 274.677 285.649 274.161C286.638 273.645 287.44 272.393 287.44 271.362C287.44 270.331 286.638 269.913 285.649 270.429Z" fill="#54D59B"/>
<path d="M285.649 289.652C284.659 290.168 283.857 291.42 283.857 292.451C283.857 293.482 284.659 293.9 285.649 293.384C286.638 292.869 287.44 291.615 287.44 290.585C287.44 289.554 286.638 289.136 285.649 289.652Z" fill="#54D59B"/>
<path d="M285.649 308.875C284.659 309.391 283.857 310.644 283.857 311.674C283.857 312.705 284.659 313.123 285.649 312.607C286.638 312.091 287.44 310.839 287.44 309.808C287.44 308.776 286.638 308.359 285.649 308.875Z" fill="#54D59B"/>
<path d="M285.649 328.096C284.659 328.612 283.857 329.865 283.857 330.896C283.857 331.926 284.659 332.345 285.649 331.829C286.638 331.314 287.44 330.06 287.44 329.03C287.44 327.999 286.638 327.582 285.649 328.096Z" fill="#54D59B"/>
<path d="M285.649 347.32C284.659 347.836 283.857 349.088 283.857 350.119C283.857 351.15 284.659 351.567 285.649 351.052C286.638 350.536 287.44 349.283 287.44 348.253C287.44 347.222 286.638 346.804 285.649 347.32Z" fill="#54D59B"/>
<path d="M285.649 366.543C284.659 367.059 283.857 368.311 283.857 369.342C283.857 370.373 284.659 370.79 285.649 370.275C286.638 369.759 287.44 368.507 287.44 367.476C287.44 366.445 286.638 366.027 285.649 366.543Z" fill="#54D59B"/>
<path d="M285.649 385.764C284.659 386.28 283.857 387.533 283.857 388.563C283.857 389.594 284.659 390.013 285.649 389.497C286.638 388.981 287.44 387.728 287.44 386.697C287.44 385.668 286.638 385.249 285.649 385.764Z" fill="#54D59B"/>
<path d="M285.649 404.988C284.659 405.504 283.857 406.756 283.857 407.787C283.857 408.818 284.659 409.235 285.649 408.72C286.638 408.205 287.44 406.951 287.44 405.921C287.44 404.89 286.638 404.473 285.649 404.988Z" fill="#54D59B"/>
<path d="M285.649 424.21C284.659 424.726 283.857 425.979 283.857 427.01C283.857 428.04 284.659 428.457 285.649 427.943C286.638 427.427 287.44 426.174 287.44 425.143C287.44 424.113 286.638 423.694 285.649 424.21Z" fill="#54D59B"/>
<g opacity="0.5">
<path d="M222.351 197.239C222.13 197.239 221.912 197.134 221.793 196.949C221.614 196.671 221.72 196.315 222.029 196.155L274.246 168.958C274.553 168.796 274.948 168.891 275.126 169.171C275.305 169.449 275.199 169.804 274.89 169.965L222.673 197.161C222.571 197.214 222.461 197.239 222.351 197.239Z" fill="#455A64"/>
<path d="M227.13 205.538C226.908 205.538 226.691 205.433 226.572 205.247C226.393 204.97 226.499 204.614 226.808 204.454L279.025 177.257C279.33 177.096 279.726 177.19 279.904 177.47C280.083 177.747 279.978 178.103 279.669 178.263L227.452 205.46C227.35 205.512 227.239 205.538 227.13 205.538Z" fill="#455A64"/>
<path d="M228.409 215.055C228.187 215.055 227.969 214.95 227.851 214.764C227.672 214.487 227.777 214.131 228.087 213.971L280.302 186.774C280.61 186.61 281.004 186.708 281.182 186.987C281.361 187.264 281.255 187.62 280.946 187.78L228.731 214.977C228.629 215.029 228.518 215.055 228.409 215.055Z" fill="#455A64"/>
<path d="M228.409 224.699C228.187 224.699 227.969 224.594 227.851 224.408C227.672 224.13 227.777 223.775 228.087 223.614L280.302 196.418C280.61 196.256 281.004 196.35 281.182 196.63C281.361 196.908 281.255 197.264 280.946 197.424L228.731 224.621C228.629 224.673 228.518 224.699 228.409 224.699Z" fill="#455A64"/>
<path d="M228.409 234.342C228.187 234.342 227.969 234.237 227.851 234.051C227.672 233.773 227.777 233.418 228.087 233.257L280.302 206.06C280.61 205.897 281.004 205.993 281.182 206.272C281.361 206.55 281.255 206.906 280.946 207.066L228.731 234.264C228.629 234.317 228.518 234.342 228.409 234.342Z" fill="#455A64"/>
<path d="M228.409 243.985C228.187 243.985 227.969 243.881 227.851 243.695C227.672 243.417 227.777 243.062 228.087 242.901L280.302 215.705C280.61 215.542 281.004 215.638 281.182 215.917C281.361 216.195 281.255 216.551 280.946 216.711L228.731 243.908C228.629 243.961 228.518 243.985 228.409 243.985Z" fill="#455A64"/>
<path d="M228.409 253.628C228.187 253.628 227.969 253.524 227.851 253.338C227.672 253.06 227.777 252.705 228.087 252.544L280.302 225.348C280.61 225.185 281.004 225.281 281.182 225.56C281.361 225.838 281.255 226.194 280.946 226.354L228.731 253.551C228.629 253.604 228.518 253.628 228.409 253.628Z" fill="#455A64"/>
<path d="M228.409 263.272C228.187 263.272 227.969 263.167 227.851 262.982C227.672 262.704 227.777 262.348 228.087 262.188L280.302 234.991C280.61 234.829 281.004 234.925 281.182 235.204C281.361 235.482 281.255 235.837 280.946 235.998L228.731 263.194C228.629 263.246 228.518 263.272 228.409 263.272Z" fill="#455A64"/>
<path d="M228.409 272.916C228.187 272.916 227.969 272.812 227.851 272.626C227.672 272.348 227.777 271.993 228.087 271.832L280.302 244.635C280.61 244.473 281.004 244.567 281.182 244.847C281.361 245.125 281.255 245.48 280.946 245.641L228.731 272.839C228.629 272.891 228.518 272.916 228.409 272.916Z" fill="#455A64"/>
<path d="M228.409 282.56C228.187 282.56 227.969 282.456 227.851 282.27C227.672 281.992 227.777 281.637 228.087 281.476L280.302 254.28C280.61 254.118 281.004 254.212 281.182 254.492C281.361 254.77 281.255 255.126 280.946 255.286L228.731 282.482C228.629 282.535 228.518 282.56 228.409 282.56Z" fill="#455A64"/>
<path d="M228.409 292.202C228.187 292.202 227.969 292.098 227.851 291.912C227.672 291.634 227.777 291.278 228.087 291.118L280.302 263.921C280.61 263.759 281.004 263.855 281.182 264.134C281.361 264.412 281.255 264.767 280.946 264.928L228.731 292.124C228.629 292.178 228.518 292.202 228.409 292.202Z" fill="#455A64"/>
<path d="M228.409 301.847C228.187 301.847 227.969 301.742 227.851 301.556C227.672 301.279 227.777 300.923 228.087 300.763L280.302 273.565C280.61 273.402 281.004 273.499 281.182 273.778C281.361 274.055 281.255 274.411 280.946 274.571L228.731 301.769C228.629 301.823 228.518 301.847 228.409 301.847Z" fill="#455A64"/>
<path d="M228.409 311.49C228.187 311.49 227.969 311.386 227.851 311.2C227.672 310.922 227.777 310.567 228.087 310.406L280.302 283.21C280.61 283.047 281.004 283.143 281.182 283.422C281.361 283.7 281.255 284.055 280.946 284.216L228.731 311.412C228.629 311.466 228.518 311.49 228.409 311.49Z" fill="#455A64"/>
<path d="M228.409 321.134C228.187 321.134 227.969 321.029 227.851 320.843C227.672 320.565 227.777 320.21 228.087 320.049L280.302 292.853C280.61 292.69 281.004 292.785 281.182 293.065C281.361 293.343 281.255 293.699 280.946 293.859L228.731 321.056C228.629 321.108 228.518 321.134 228.409 321.134Z" fill="#455A64"/>
<path d="M228.409 330.777C228.187 330.777 227.969 330.673 227.851 330.487C227.672 330.209 227.777 329.853 228.087 329.693L280.302 302.496C280.61 302.333 281.004 302.429 281.182 302.709C281.361 302.987 281.255 303.342 280.946 303.503L228.731 330.699C228.629 330.752 228.518 330.777 228.409 330.777Z" fill="#455A64"/>
<path d="M228.409 340.422C228.187 340.422 227.969 340.317 227.851 340.131C227.672 339.854 227.777 339.498 228.087 339.338L280.302 312.141C280.61 311.978 281.004 312.075 281.182 312.354C281.361 312.632 281.255 312.987 280.946 313.147L228.731 340.344C228.629 340.396 228.518 340.422 228.409 340.422Z" fill="#455A64"/>
<path d="M228.409 350.064C228.187 350.064 227.969 349.96 227.851 349.774C227.672 349.496 227.777 349.14 228.087 348.98L280.302 321.783C280.61 321.622 281.004 321.716 281.182 321.996C281.361 322.274 281.255 322.629 280.946 322.79L228.731 349.986C228.629 350.04 228.518 350.064 228.409 350.064Z" fill="#455A64"/>
<path d="M228.409 359.708C228.187 359.708 227.969 359.603 227.851 359.417C227.672 359.139 227.777 358.784 228.087 358.623L280.302 331.427C280.61 331.264 281.004 331.361 281.182 331.639C281.361 331.917 281.255 332.273 280.946 332.433L228.731 359.63C228.629 359.683 228.518 359.708 228.409 359.708Z" fill="#455A64"/>
<path d="M228.409 369.352C228.187 369.352 227.969 369.247 227.851 369.062C227.672 368.784 227.777 368.428 228.087 368.268L280.302 341.07C280.61 340.907 281.004 341.003 281.182 341.283C281.361 341.561 281.255 341.916 280.946 342.076L228.731 369.274C228.629 369.328 228.518 369.352 228.409 369.352Z" fill="#455A64"/>
<path d="M228.409 378.996C228.187 378.996 227.969 378.891 227.851 378.705C227.672 378.427 227.777 378.072 228.087 377.912L280.302 350.715C280.61 350.552 281.004 350.649 281.182 350.928C281.361 351.205 281.255 351.561 280.946 351.721L228.731 378.918C228.629 378.97 228.518 378.996 228.409 378.996Z" fill="#455A64"/>
<path d="M228.409 388.639C228.187 388.639 227.969 388.535 227.851 388.349C227.672 388.071 227.777 387.715 228.087 387.555L280.302 360.358C280.61 360.196 281.004 360.292 281.182 360.571C281.361 360.849 281.255 361.204 280.946 361.365L228.731 388.561C228.629 388.614 228.518 388.639 228.409 388.639Z" fill="#455A64"/>
<path d="M228.409 398.282C228.187 398.282 227.969 398.177 227.851 397.991C227.672 397.713 227.777 397.358 228.087 397.197L280.302 370.001C280.61 369.837 281.004 369.933 281.182 370.213C281.361 370.491 281.255 370.847 280.946 371.007L228.731 398.204C228.629 398.257 228.518 398.282 228.409 398.282Z" fill="#455A64"/>
<path d="M228.409 407.926C228.187 407.926 227.969 407.822 227.851 407.636C227.672 407.358 227.777 407.002 228.087 406.842L280.302 379.645C280.61 379.482 281.004 379.578 281.182 379.858C281.361 380.136 281.255 380.491 280.946 380.652L228.731 407.848C228.629 407.902 228.518 407.926 228.409 407.926Z" fill="#455A64"/>
<path d="M228.409 417.57C228.187 417.57 227.969 417.465 227.851 417.279C227.672 417.001 227.777 416.646 228.087 416.485L280.302 389.289C280.61 389.127 281.004 389.221 281.182 389.502C281.361 389.779 281.255 390.135 280.946 390.295L228.731 417.492C228.629 417.545 228.518 417.57 228.409 417.57Z" fill="#455A64"/>
<path d="M228.409 427.213C228.187 427.213 227.969 427.108 227.851 426.922C227.672 426.645 227.777 426.289 228.087 426.129L280.302 398.932C280.61 398.77 281.004 398.866 281.182 399.145C281.361 399.423 281.255 399.778 280.946 399.938L228.731 427.135C228.629 427.189 228.518 427.213 228.409 427.213Z" fill="#455A64"/>
<path d="M228.409 436.858C228.187 436.858 227.969 436.753 227.851 436.567C227.672 436.289 227.777 435.934 228.087 435.773L280.302 408.576C280.61 408.413 281.004 408.509 281.182 408.788C281.361 409.066 281.255 409.422 280.946 409.582L228.731 436.78C228.629 436.832 228.518 436.858 228.409 436.858Z" fill="#455A64"/>
<path d="M228.409 446.501C228.187 446.501 227.969 446.396 227.851 446.21C227.672 445.933 227.777 445.577 228.087 445.417L280.302 418.22C280.61 418.057 281.004 418.153 281.182 418.433C281.361 418.71 281.255 419.066 280.946 419.226L228.731 446.423C228.629 446.475 228.518 446.501 228.409 446.501Z" fill="#455A64"/>
<path d="M228.762 455.861C228.54 455.861 228.322 455.756 228.204 455.57C228.025 455.292 228.13 454.937 228.44 454.776L280.655 427.58C280.963 427.418 281.357 427.512 281.535 427.793C281.714 428.07 281.608 428.426 281.299 428.586L229.084 455.783C228.982 455.836 228.871 455.861 228.762 455.861Z" fill="#455A64"/>
<path d="M231.582 465.143C231.361 465.143 231.143 465.038 231.025 464.852C230.846 464.574 230.951 464.219 231.26 464.058L283.477 436.862C283.785 436.699 284.179 436.796 284.357 437.075C284.536 437.352 284.43 437.708 284.121 437.868L231.904 465.065C231.803 465.117 231.692 465.143 231.582 465.143Z" fill="#455A64"/>
<path d="M236.439 472.924L269.335 455.796V457.132L237.083 473.935C236.98 473.981 236.864 474.004 236.761 474.004C236.529 474.004 236.311 473.9 236.195 473.714C236.014 473.447 236.13 473.086 236.439 472.924Z" fill="#455A64"/>
<path d="M244.967 479.63L269.336 466.984V468.321L245.611 480.63C245.508 480.688 245.405 480.711 245.289 480.711C245.07 480.711 244.851 480.606 244.735 480.421C244.555 480.142 244.658 479.793 244.967 479.63Z" fill="#455A64"/>
<path d="M255.467 483.946L269.335 476.793C269.322 477.258 269.309 477.711 269.283 478.152L256.111 484.946C256.008 485.004 255.905 485.027 255.789 485.027C255.57 485.027 255.351 484.922 255.235 484.736C255.055 484.458 255.158 484.109 255.467 483.946Z" fill="#455A64"/>
</g>
<g opacity="0.5">
<path d="M206.558 228.299V229.636L195.674 235.306C195.571 235.364 195.468 235.388 195.352 235.388C195.133 235.388 194.914 235.283 194.798 235.097C194.618 234.818 194.721 234.47 195.03 234.307L206.558 228.299Z" fill="#455A64"/>
<path d="M206.558 239.06V240.396L198.495 244.591C198.392 244.649 198.289 244.672 198.173 244.672C197.954 244.672 197.735 244.567 197.619 244.382C197.439 244.103 197.542 243.742 197.851 243.591L206.558 239.06Z" fill="#455A64"/>
</g>
<path d="M290.261 179.713C290.261 179.713 289.374 187.008 289.184 188.743C288.995 190.478 282.843 194.525 278.641 196.325C274.438 198.125 269.86 200.194 273.044 205.433C275.98 210.264 283.48 210.276 287.152 209.54C290.824 208.805 295.266 204.804 296.253 199.34C297.511 192.372 294.765 185.581 295.024 181.587C295.284 177.593 292.027 177.073 290.261 179.713Z" fill="#B16668"/>
</svg>
